HIERARCHY
ROOT Hips
{
	OFFSET 0.00000 0.00000 0.00000
	CHANNELS 6 Xposition Yposition Zposition Zrotation Yrotation Xrotation 
	JOINT LHipJoint
	{
		OFFSET 0 0 0
		CHANNELS 3 Zrotation Yrotation Xrotation
		JOINT LeftUpLeg
		{
			OFFSET 1.36443 -1.53315 0.80540
			CHANNELS 3 Zrotation Yrotation Xrotation
			JOINT LeftLeg
			{
				OFFSET 2.27494 -6.25036 0.00000
				CHANNELS 3 Zrotation Yrotation Xrotation
				JOINT LeftFoot
				{
					OFFSET 2.17461 -5.97470 0.00000
					CHANNELS 3 Zrotation Yrotation Xrotation
					JOINT LeftToeBase
					{
						OFFSET 0.22144 -0.60841 2.08966
						CHANNELS 3 Zrotation Yrotation Xrotation
						End Site
						{
							OFFSET 0.00000 -0.00000 1.09206
						}
					}
				}
			}
		}
	}
	JOINT RHipJoint
	{
		OFFSET 0 0 0
		CHANNELS 3 Zrotation Yrotation Xrotation
		JOINT RightUpLeg
		{
			OFFSET -1.29957 -1.53315 0.80539
			CHANNELS 3 Zrotation Yrotation Xrotation
			JOINT RightLeg
			{
				OFFSET -2.23917 -6.15209 0.00000
				CHANNELS 3 Zrotation Yrotation Xrotation
				JOINT RightFoot
				{
					OFFSET -2.18029 -5.99030 0.00000
					CHANNELS 3 Zrotation Yrotation Xrotation
					JOINT RightToeBase
					{
						OFFSET -0.22354 -0.61416 1.89975
						CHANNELS 3 Zrotation Yrotation Xrotation
						End Site
						{
							OFFSET -0.00000 -0.00000 1.00221
						}
					}
				}
			}
		}
	}
	JOINT LowerBack
	{
		OFFSET 0 0 0
		CHANNELS 3 Zrotation Yrotation Xrotation
		JOINT Spine
		{
			OFFSET -0.04725 2.10352 -0.01215
			CHANNELS 3 Zrotation Yrotation Xrotation
			JOINT Spine1
			{
				OFFSET 0.04471 2.09612 -0.07192
				CHANNELS 3 Zrotation Yrotation Xrotation
				JOINT Neck
				{
					OFFSET 0 0 0
					CHANNELS 3 Zrotation Yrotation Xrotation
					JOINT Neck1
					{
						OFFSET -0.01586 1.38087 0.11506
						CHANNELS 3 Zrotation Yrotation Xrotation
						JOINT Head
						{
							OFFSET -0.01055 1.38869 -0.12115
							CHANNELS 3 Zrotation Yrotation Xrotation
							End Site
							{
								OFFSET -0.00310 1.39537 -0.05348
							}
						}
					}
				}
				JOINT LeftShoulder
				{
					OFFSET 0 0 0
					CHANNELS 3 Zrotation Yrotation Xrotation
					JOINT LeftArm
					{
						OFFSET 2.71932 0.62535 0.37316
						CHANNELS 3 Zrotation Yrotation Xrotation
						JOINT LeftForeArm
						{
							OFFSET 4.47366 -0.00000 0.00000
							CHANNELS 3 Zrotation Yrotation Xrotation
							JOINT LeftHand
							{
								OFFSET 3.19948 -0.00000 -0.00000
								CHANNELS 3 Zrotation Yrotation Xrotation
								JOINT LeftFingerBase
								{
									OFFSET 0 0 0
									CHANNELS 3 Zrotation Yrotation Xrotation
									JOINT LeftHandIndex1
									{
										OFFSET 0.49267 -0.00000 -0.00000
										CHANNELS 3 Zrotation Yrotation Xrotation
										End Site
										{
											OFFSET 0.39720 -0.00000 -0.00000
										}
									}
								}
								JOINT LThumb
								{
									OFFSET 0 0 0
									CHANNELS 3 Zrotation Yrotation Xrotation
									End Site
									{
										OFFSET 0.40327 -0.00000 0.40327
									}
								}
							}
						}
					}
				}
				JOINT RightShoulder
				{
					OFFSET 0 0 0
					CHANNELS 3 Zrotation Yrotation Xrotation
					JOINT RightArm
					{
						OFFSET -2.97334 0.70851 0.47631
						CHANNELS 3 Zrotation Yrotation Xrotation
						JOINT RightForeArm
						{
							OFFSET -4.32690 -0.00000 -0.00000
							CHANNELS 3 Zrotation Yrotation Xrotation
							JOINT RightHand
							{
								OFFSET -3.18960 -0.00000 0.00000
								CHANNELS 3 Zrotation Yrotation Xrotation
								JOINT RightFingerBase
								{
									OFFSET 0 0 0
									CHANNELS 3 Zrotation Yrotation Xrotation
									JOINT RightHandIndex1
									{
										OFFSET -0.46450 -0.00000 -0.00000
										CHANNELS 3 Zrotation Yrotation Xrotation
										End Site
										{
											OFFSET -0.37449 -0.00000 -0.00000
										}
									}
								}
								JOINT RThumb
								{
									OFFSET 0 0 0
									CHANNELS 3 Zrotation Yrotation Xrotation
									End Site
									{
										OFFSET -0.38021 -0.00000 0.38021
									}
								}
							}
						}
					}
				}
			}
		}
	}
}
MOTION
Frames: 6
Frame Time: .0083333
8.9434 15.1219 14.1659 0 0 0 0 0 0 -21 0 0 0 0 0 0 0 0 0 0 0 0 0 0 21 0 0 0 0 0 0 0 0 0 0 0 0 0 0 0 0 0 0 0 0 0 0 -16 0 0 21 0 0 11 0 0 0 -8 0 0 0 0 0 0 0 0 0 0 0 0 0 0 0 0 0 0 0 0 8 0 0 0 0 0 0 0 0 0 0 0 0 0 0 0 0 0
8.9434 15.1219 14.1659 -12.9335 88.4727 -7.3388 0.0000 0.0000 0.0000 -23.2804 -3.2977 -36.6181 4.8640 13.2290 40.2319 0.1292 11.6058 -18.1985 0.0031 -0.3624 -0.9957 0.0000 0.0000 0.0000 28.6884 10.9496 -9.0475 -3.6620 -11.6965 34.6666 -0.3594 -21.7674 -33.0185 -0.0007 -0.1748 0.4803 1.4668 3.3714 -5.3784 0.4265 4.5187 -3.6883 -0.1696 2.2792 -0.7092 8.0306 9.8746 -7.9248 -7.8242 13.8074 14.0213 -2.5433 6.6380 6.6734 0.0000 0.0000 0.0000 -22.7885 -3.8454 -63.9204 20.4125 -31.1361 -5.7431 -0.0000 -0.0000 92.6573 30.6184 -3.9406 -2.3291 -7.1250 0.0000 -0.0000 3.0029 25.4025 -1.4263 0.0000 0.0000 0.0000 28.0243 -8.9900 -67.2186 -27.8686 38.9949 -10.0409 0.0000 -0.0000 -77.9657 4.3728 -27.5804 -2.0277 7.1250 -0.0000 -0.0000 35.8179 -53.7542 -8.5604
8.9374 15.1222 14.1589 -11.3395 88.4041 -5.7730 0.0000 0.0000 0.0000 -23.3597 -3.1028 -36.6226 4.8488 13.2115 40.1653 0.1483 11.4252 -18.2029 0.0018 -0.2730 -0.7501 0.0000 0.0000 0.0000 28.5787 10.7680 -9.1545 -3.6774 -11.7182 34.7423 -0.4083 -21.4919 -32.9739 -0.0009 -0.1918 0.5269 1.5227 3.3579 -5.3691 0.4152 4.4985 -3.6893 -0.2135 2.2679 -0.7106 8.1078 9.8283 -7.9065 -7.7932 13.7286 14.0370 -2.5546 6.6059 6.6719 -0.0000 -0.0000 0.0000 -22.7533 -3.7609 -63.8371 20.3842 -31.1024 -5.7285 -0.0000 -0.0000 92.2285 31.1318 -4.0012 -2.4133 -7.1250 0.0000 -0.0000 3.3848 25.3073 -1.6157 -0.0000 -0.0000 0.0000 27.9619 -8.8740 -67.3140 -27.8327 38.9618 -10.0183 0.0000 -0.0000 -77.8843 4.2267 -27.3137 -1.9422 7.1250 -0.0000 -0.0000 35.4830 -53.5616 -8.2849
8.9305 15.1235 14.1519 -13.0969 88.3843 -7.5137 0.0000 0.0000 0.0000 -23.4227 -2.7360 -36.7876 4.8383 13.1994 40.1194 0.1675 11.0988 -18.0312 0.0026 -0.3279 -0.9009 0.0000 0.0000 0.0000 28.5799 10.7489 -9.2214 -3.6853 -11.7295 34.7816 -0.4665 -21.2834 -33.0720 -0.0025 -0.3215 0.8832 1.6245 3.3025 -5.4233 0.4758 4.4200 -3.6856 -0.2083 2.2281 -0.6752 7.9483 9.8049 -7.8178 -7.6467 13.6829 13.8997 -2.4976 6.5896 6.5871 0.0000 0.0000 0.0000 -22.8191 -3.6203 -63.7733 20.3994 -31.1205 -5.7363 -0.0000 -0.0000 91.9209 31.2206 -4.1018 -2.4825 -7.1250 0.0000 -0.0000 3.4448 25.1856 -1.6542 0.0000 0.0000 0.0000 27.8383 -8.7536 -67.3127 -27.7857 38.9182 -9.9888 0.0000 -0.0000 -77.8430 4.2038 -26.7828 -1.8970 7.1250 -0.0000 -0.0000 35.0673 -53.1275 -7.7698
8.9248 15.1257 14.1453 -13.2125 88.3743 -7.6338 0.0000 0.0000 0.0000 -23.5085 -2.5090 -36.8795 4.8301 13.1899 40.0836 0.1754 10.9136 -17.8998 0.0028 -0.3420 -0.9396 0.0000 0.0000 0.0000 28.5310 10.7296 -9.2613 -3.6927 -11.7398 34.8178 -0.5191 -21.0850 -33.1500 -0.0048 -0.4457 1.2245 1.6586 3.2578 -5.4592 0.5106 4.3584 -3.6814 -0.1923 2.1973 -0.6522 7.8691 9.6320 -7.4450 -7.7483 13.4366 13.2970 -2.5742 6.4760 6.3134 -0.0000 -0.0000 0.0000 -22.8204 -3.5098 -63.6854 20.4394 -31.1681 -5.7571 -0.0000 -0.0000 91.7062 30.9181 -4.2181 -2.5224 -7.1250 0.0000 -0.0000 3.2107 25.0659 -1.5504 -0.0000 -0.0000 0.0000 27.8364 -8.7729 -67.2188 -27.7937 38.9256 -9.9938 0.0000 -0.0000 -77.9849 4.1668 -26.6394 -1.8709 7.1250 -0.0000 -0.0000 34.9288 -53.0153 -7.6299
8.9197 15.1251 14.1387 -11.9957 88.3265 -6.4601 0.0000 0.0000 0.0000 -23.5530 -2.4976 -36.8463 4.8269 13.1861 40.0693 0.1689 10.9546 -17.8701 0.0032 -0.3678 -1.0105 0.0000 0.0000 0.0000 28.4463 10.6593 -9.2781 -3.6953 -11.7435 34.8304 -0.5348 -20.9393 -33.0700 -0.0058 -0.4935 1.3561 1.6455 3.2230 -5.4645 0.5379 4.3116 -3.6599 -0.1584 2.1744 -0.6308 7.8850 9.2562 -6.6920 -8.1677 12.9217 12.1185 -2.8173 6.2329 5.8018 0.0000 0.0000 0.0000 -22.7807 -3.4184 -63.6202 20.4599 -31.1925 -5.7677 -0.0000 -0.0000 91.4003 30.8516 -4.2208 -2.5173 -7.1250 0.0000 -0.0000 3.1607 25.0661 -1.5261 0.0000 0.0000 0.0000 27.8643 -8.7315 -67.1770 -27.8393 38.9678 -10.0224 0.0000 -0.0000 -78.0972 3.9928 -26.4388 -1.7801 7.1250 -0.0000 -0.0000 34.6260 -52.8796 -7.4267
